<svg xmlns="http://www.w3.org/2000/svg" viewBox="0 0 50 50"><title>Bitcoin</title><circle cx="25" cy="25" r="25" fill="#f7931a"/><path d="M36.606,21.018c.485-3.245-1.986-4.99-5.365-6.154l1.1-4.4L29.661,9.8l-1.067,4.281c-.7-.176-1.426-.341-2.144-.505l1.075-4.309L24.851,8.6,23.754,13c-.582-.132-1.154-.263-1.709-.4l0-.014-3.69-.922-.712,2.859s1.985.455,1.943.483a1.423,1.423,0,0,1,1.247,1.556l-3,12.043a.974.974,0,0,1-1.226.636c.027.039-1.945-.486-1.945-.486l-1.329,3.064,3.483.868c.648.162,1.282.332,1.907.492l-1.107,4.447,2.673.667,1.1-4.4c.73.2,1.439.381,2.132.554L22.425,38.82l2.676.667,1.108-4.438c4.563.864,7.994.515,9.439-3.612,1.163-3.323-.058-5.24-2.459-6.49A4.268,4.268,0,0,0,36.606,21.018Zm-6.115,8.574c-.826,3.323-6.422,1.527-8.236,1.076l1.47-5.891C25.539,25.23,31.356,26.126,30.491,29.592Zm.828-8.622c-.754,3.023-5.411,1.487-6.922,1.111l1.332-5.343C27.24,17.114,32.1,17.817,31.319,20.97Z" fill="#fff"/></svg>