<svg xmlns="http://www.w3.org/2000/svg" viewBox="0 0 50 50"><title>Ethereum</title><circle cx="25" cy="25" r="25" fill="#7986cb"/><polygon points="24.997 9.689 24.795 10.376 24.795 30.293 24.997 30.494 34.242 25.029 24.997 9.689" fill="#f2f2f2"/><polygon points="24.997 9.689 15.752 25.029 24.997 30.494 24.997 20.827 24.997 9.689" fill="#fff"/><polygon points="24.997 32.495 24.883 32.633 24.883 39.728 24.997 40.061 34.248 27.033 24.997 32.495" fill="#f2f2f2"/><polygon points="24.997 40.061 24.997 32.495 15.752 27.033 24.997 40.061" fill="#fff"/><polygon points="24.997 30.494 34.242 25.029 24.997 20.827 24.997 30.494" fill="#e3e3e3"/><polygon points="15.752 25.029 24.997 30.494 24.997 20.827 15.752 25.029" fill="#f2f2f2"/></svg>