<svg xmlns="http://www.w3.org/2000/svg" viewBox="0 0 50 50"><title>PerfectMoney</title><circle cx="25" cy="25" r="25" fill="#ed2422"/><path d="M5.743,25.325a29,29,0,0,0,5.562.557,13.873,13.873,0,0,0,3.93-.515,4.4,4.4,0,0,0,3.2-2.812,5.714,5.714,0,0,0,.259-2.317A3.871,3.871,0,0,0,17.666,18a5.837,5.837,0,0,0-2.782-1.565H12.65v8.5H10.257V16.711H8.137v-.869s7.84-.047,8.727.057a5.017,5.017,0,0,1,3.814,2.891,5.466,5.466,0,0,1,.485,2.515,4.589,4.589,0,0,1-1.076,2.753,6.265,6.265,0,0,1-3.545,1.956,18.665,18.665,0,0,1-5.057.384A21.777,21.777,0,0,1,5.743,25.325Zm4.5,1.832v5.1s-.014,1.086-.994,1.086H8.029V34.2h6.908v-.937H13.409a.889.889,0,0,1-.788-.891V27.11H10.257Zm8.829,7.085h6.957V33.175h-2a1.356,1.356,0,0,1-.649-1.11V19.217l7.754,15.008,7.586-14.72-.166,12.7a.85.85,0,0,1-.883,1.05c-1.074,0-1.3.032-1.3.032l-.013.817h6.958v-.971H41.69a.614.614,0,0,1-.677-.677V17.041s.01-.336.61-.336h1.41V15.666H38.716L31.608,30.4,24.545,15.77H20.682v.881h1.227s.425-.047.425.6-.167,14.883-.167,14.883a1.055,1.055,0,0,1-1.157,1.1H19.075v1.074Z" fill="#fff"/></svg>