<svg width="47" height="47" viewBox="0 0 47 47" fill="none" xmlns="http://www.w3.org/2000/svg">
<path d="M37.576 29.591C38.3756 29.8951 38.6832 31.0792 38.7444 31.5958C38.8676 32.5381 38.5915 32.9026 38.2839 32.9026C37.9763 32.9026 37.5454 32.5381 37.085 31.8092C36.6235 31.0792 36.4391 30.2596 36.6856 29.8337C36.8385 29.5599 37.1757 29.439 37.576 29.591ZM32.9044 33.0245C33.3964 33.0245 33.9495 33.2369 34.4415 33.6618C35.394 34.4522 35.6711 35.3634 35.1791 36.032C34.902 36.3663 34.4415 36.5787 33.919 36.5787C33.3964 36.5787 32.8433 36.3965 32.4745 36.0622C31.6137 35.3332 31.3682 34.117 31.9204 33.4494C32.1363 33.1755 32.4745 33.0245 32.9044 33.0245ZM22.1473 41.8044C10.4664 41.8044 1 32.4466 1 20.9017C1 9.35691 10.4674 0 22.1464 0C33.8263 0 43.2937 9.35786 43.2937 20.9017C43.2937 24.8205 42.1874 28.4976 40.313 31.6269C40.2509 31.7176 40.0971 31.6873 40.0666 31.5655C39.329 26.4315 36.1631 23.6052 31.5526 22.7554C31.1523 22.694 31.0912 22.4513 31.6137 22.3909C33.0276 22.2691 35.0252 22.2993 36.0704 22.4815C36.1315 21.965 36.1631 21.4183 36.1631 20.8715C36.1631 13.2455 29.8922 7.04719 22.1769 7.04719C14.4626 7.04719 8.19177 13.2455 8.19177 20.8715C8.19177 28.4976 14.4626 34.6958 22.1779 34.6958H22.8227C22.6037 33.4624 22.5108 32.2102 22.5457 30.9584C22.5772 30.1076 22.7616 29.9857 23.1304 30.6543C25.0668 33.9659 27.8335 36.9432 33.2426 38.1283C37.6687 39.1009 42.0947 40.2246 46.859 46.2095C47.2889 46.726 46.644 47.2728 46.152 46.8478C41.2961 42.5938 36.87 41.1963 32.8433 41.1963C28.3245 41.2275 25.2522 41.8044 22.1473 41.8044Z" fill="#FF8C00"/>
</svg>
