<svg width="60" height="60" viewBox="0 0 60 60" fill="none" xmlns="http://www.w3.org/2000/svg">
<circle cx="30" cy="30" r="30" fill="#FF8C00"/>
<path d="M40.0344 34.6655C40.6255 34.8984 40.8528 35.8054 40.898 36.201C40.9891 36.9228 40.785 37.202 40.5577 37.202C40.3303 37.202 40.0118 36.9228 39.6715 36.3645C39.3304 35.8054 39.1942 35.1776 39.3763 34.8514C39.4893 34.6416 39.7386 34.549 40.0344 34.6655ZM36.5815 37.2953C36.9452 37.2953 37.354 37.4581 37.7177 37.7835C38.4217 38.3889 38.6264 39.0869 38.2628 39.599C38.058 39.855 37.7177 40.0178 37.3314 40.0178C36.9452 40.0178 36.5363 39.8782 36.2638 39.6221C35.6275 39.0638 35.4461 38.1322 35.8542 37.6208C36.0138 37.4111 36.2638 37.2953 36.5815 37.2953ZM28.6306 44.0204C19.9969 44.0204 13 36.8527 13 28.0098C13 19.167 19.9976 12 28.6299 12C37.2629 12 44.2605 19.1677 44.2605 28.0098C44.2605 31.0115 43.4429 33.8279 42.0575 36.2249C42.0116 36.2943 41.8979 36.2712 41.8753 36.1779C41.3302 32.2454 38.9901 30.0806 35.5824 29.4296C35.2865 29.3826 35.2413 29.1967 35.6275 29.1505C36.6726 29.0572 38.1491 29.0803 38.9216 29.2199C38.9668 28.8243 38.9901 28.4055 38.9901 27.9867C38.9901 22.1455 34.3551 17.3979 28.6525 17.3979C22.9506 17.3979 18.3157 22.1455 18.3157 27.9867C18.3157 33.8279 22.9506 38.5755 28.6532 38.5755H29.1299C28.9679 37.6308 28.8993 36.6717 28.9251 35.7128C28.9484 35.0611 29.0847 34.9678 29.3572 35.4799C30.7885 38.0164 32.8334 40.2969 36.8315 41.2047C40.1029 41.9496 43.3744 42.8104 46.8958 47.3945C47.2135 47.7901 46.7369 48.2089 46.3732 47.8834C42.7841 44.6251 39.5126 43.5546 36.5363 43.5546C33.1964 43.5785 30.9255 44.0204 28.6306 44.0204Z" fill="white"/>
</svg>
