<svg width="47" height="47" viewBox="0 0 47 47" fill="none" xmlns="http://www.w3.org/2000/svg">
<path d="M40.5134 10.3542C41.5347 11.6747 42.3994 13.1093 43.0897 14.6292L23.5052 29.0666L15.3203 23.9357V17.7629L23.5052 22.8938L40.5134 10.3542Z" fill="#21A038"/>
<path d="M6.96703 23.5C6.96703 23.223 6.97379 22.9479 6.9873 22.6743L2.02701 22.4312C2.01013 22.7858 2.00001 23.1437 2.00001 23.505C1.9979 26.3278 2.55309 29.123 3.63377 31.7306C4.71443 34.3383 6.29929 36.7068 8.29743 38.7005L11.8159 35.1836C10.2778 33.6516 9.05761 31.8308 8.22547 29.8257C7.39334 27.8206 6.96567 25.6708 6.96703 23.5Z" fill="url(#paint0_linear)"/>
<path d="M23.5007 6.96594C23.7776 6.96594 24.0527 6.97607 24.3262 6.98957L24.5744 2.02742C24.2188 2.01053 23.8608 2.00209 23.5007 2.00209C20.6767 1.99865 17.88 2.55307 15.271 3.63351C12.662 4.71396 10.2921 6.29916 8.29736 8.29808L11.8158 11.8167C13.3478 10.278 15.1688 9.05734 17.1741 8.22488C19.1794 7.39243 21.3294 6.96457 23.5007 6.96594Z" fill="url(#paint1_linear)"/>
<path d="M23.5007 40.0344C23.2239 40.0344 22.9486 40.0344 22.6735 40.0124L22.4253 44.9729C22.7821 44.9909 23.1406 45 23.5007 45C26.3235 45.0029 29.1188 44.4481 31.7265 43.3674C34.3341 42.2866 36.7025 40.7012 38.6957 38.7023L35.184 35.1854C33.6517 36.7233 31.8309 37.9432 29.826 38.7754C27.8211 39.6075 25.6715 40.0354 23.5007 40.0344Z" fill="url(#paint2_linear)"/>
<path d="M32.8204 9.85102L37.0006 6.76971C33.1798 3.67568 28.4105 1.99141 23.494 2.00003V6.96557C26.8232 6.96144 30.0751 7.96757 32.8204 9.85102Z" fill="url(#paint3_linear)"/>
<path d="M45 23.5C45.0027 22.2082 44.8897 20.9187 44.6623 19.6471L40.0347 23.0576C40.0347 23.2046 40.0347 23.3514 40.0347 23.5C40.0359 25.8102 39.5516 28.0949 38.6134 30.2059C37.6751 32.3169 36.3037 34.2072 34.5881 35.7542L37.926 39.4435C40.1563 37.4299 41.9386 34.9701 43.1572 32.2236C44.376 29.4769 45.0038 26.5048 45 23.5Z" fill="#21A038"/>
<path d="M23.5008 40.0344C21.1905 40.0352 18.9058 39.5508 16.7946 38.6125C14.6835 37.6743 12.7929 36.303 11.2453 34.5877L7.55798 37.9239C9.57123 40.1547 12.0309 41.9373 14.7774 43.1564C17.5239 44.3753 20.4959 45.0034 23.5008 44.9999V40.0344Z" fill="url(#paint4_linear)"/>
<path d="M12.4136 11.2456L9.07744 7.55649C6.84645 9.56967 5.06351 12.0293 3.84425 14.7759C2.62501 17.5225 1.99668 20.4948 2.00001 23.4999H6.96705C6.96602 21.1898 7.45034 18.9051 8.38858 16.7941C9.32684 14.6831 10.6981 12.7928 12.4136 11.2456Z" fill="url(#paint5_linear)"/>
<defs>
<linearGradient id="paint0_linear" x1="9.30198" y1="38.0809" x2="3.87534" y2="22.3942" gradientUnits="userSpaceOnUse">
<stop offset="0.14" stop-color="#F1E813"/>
<stop offset="0.3" stop-color="#E6E418"/>
<stop offset="0.58" stop-color="#C9DA26"/>
<stop offset="0.89" stop-color="#A2CC39"/>
</linearGradient>
<linearGradient id="paint1_linear" x1="9.71554" y1="9.17604" x2="23.6932" y2="3.84955" gradientUnits="userSpaceOnUse">
<stop offset="0.06" stop-color="#0FA7DF"/>
<stop offset="0.54" stop-color="#0098F8"/>
<stop offset="0.92" stop-color="#0290EA"/>
</linearGradient>
<linearGradient id="paint2_linear" x1="22.0978" y1="42.003" x2="37.9038" y2="38.4324" gradientUnits="userSpaceOnUse">
<stop offset="0.12" stop-color="#A2CC39"/>
<stop offset="0.28" stop-color="#86C239"/>
<stop offset="0.87" stop-color="#219F38"/>
</linearGradient>
<linearGradient id="paint3_linear" x1="22.4608" y1="3.66309" x2="35.9742" y2="7.8331" gradientUnits="userSpaceOnUse">
<stop offset="0.06" stop-color="#0290EA"/>
<stop offset="0.79" stop-color="#0C89CA"/>
</linearGradient>
<linearGradient id="paint4_linear" x1="8.80395" y1="37.3194" x2="23.5128" y2="42.8164" gradientUnits="userSpaceOnUse">
<stop offset="0.13" stop-color="#F1E813"/>
<stop offset="0.3" stop-color="#EAE616"/>
<stop offset="0.53" stop-color="#D8DF1F"/>
<stop offset="0.8" stop-color="#BAD52D"/>
<stop offset="0.98" stop-color="#A2CC39"/>
</linearGradient>
<linearGradient id="paint5_linear" x1="3.85041" y1="24.1009" x2="9.75486" y2="8.7419" gradientUnits="userSpaceOnUse">
<stop offset="0.07" stop-color="#A2CC39"/>
<stop offset="0.26" stop-color="#81C45E"/>
<stop offset="0.92" stop-color="#0FA7DF"/>
</linearGradient>
</defs>
</svg>
