<svg xmlns="http://www.w3.org/2000/svg" viewBox="0 0 50 50"><title>Tether</title><path d="M25,0A25,25,0,1,1,0,25,25,25,0,0,1,25,0" fill="#53ae94"/><path d="M27.847,22.024V18.593h7.846V13.365H14.327v5.228h7.848v3.428C15.8,22.314,11,23.577,11,25.09s4.8,2.777,11.173,3.071V39.152h5.674V28.16C34.214,27.867,39,26.6,39,25.093s-4.786-2.774-11.151-3.068m0,5.205v0c-.16.01-.983.059-2.814.059-1.464,0-2.5-.041-2.858-.06v0c-5.634-.249-9.84-1.23-9.84-2.4s4.207-2.154,9.84-2.4v3.831c.369.025,1.425.088,2.882.088,1.749,0,2.629-.073,2.791-.088V22.422c5.623.25,9.819,1.232,9.819,2.4s-4.2,2.153-9.819,2.4" fill="#fff"/></svg>