<svg width="60" height="60" viewBox="0 0 60 60" fill="none" xmlns="http://www.w3.org/2000/svg">
<path d="M30 0C46.57 0 60 13.43 60 30C60 46.57 46.57 60 30 60C13.43 60 0 46.57 0 30C0 13.43 13.43 0 30 0Z" fill="#8B3FFD"/>
<path d="M34.08 17.55C26.52 17.55 20.5 23.65 20.5 31.13C20.5 38.69 26.6 44.71 34.08 44.71C41.56 44.71 47.66 38.61 47.66 31.13C47.75 23.65 41.56 17.55 34.08 17.55ZM34.08 36.2C31.33 36.2 29.01 33.88 29.01 31.13C29.01 28.38 31.33 26.06 34.08 26.06C36.83 26.06 39.15 28.38 39.15 31.13C39.15 33.88 36.92 36.2 34.08 36.2Z" fill="white"/>
<path d="M20.5 21.5V41.27H15.69L9.5 21.5H20.5Z" fill="white"/>
</svg>
