<svg xmlns="http://www.w3.org/2000/svg" viewBox="0 0 50 50"><title>VisaMasterCard</title><circle cx="25" cy="25" r="25" fill="#0e4595"/><path d="M42.3,30.961a10.356,10.356,0,0,1-20.712.005v-.005A10.356,10.356,0,1,1,42.3,30.955Z" fill="#f90"/><path d="M17.987,20.605a10.356,10.356,0,1,0,7.036,18.013h0a10.4,10.4,0,0,0,1.052-1.109H23.954a10.088,10.088,0,0,1-.772-1.067h3.659a10.313,10.313,0,0,0,.6-1.109H22.578a10.137,10.137,0,0,1-.433-1.088h5.732a10.412,10.412,0,0,0,.3-5.5H21.841a10.219,10.219,0,0,1,.295-1.088h5.735a10.191,10.191,0,0,0-.447-1.109H22.577a10.069,10.069,0,0,1,.594-1.088h3.657a10.436,10.436,0,0,0-.8-1.109H23.985A9.768,9.768,0,0,1,25.024,23.3a10.317,10.317,0,0,0-6.97-2.7C18.032,20.605,18.01,20.6,17.987,20.605Z" fill="#c00"/><path d="M21.92,33.483l.132-.9c-.072,0-.178.031-.272.031-.366,0-.407-.2-.383-.339l.3-1.828h.557l.135-.991h-.526l.107-.616H20.913c-.024.024-.623,3.466-.623,3.885a.782.782,0,0,0,.84.892A2.778,2.778,0,0,0,21.92,33.483Z" fill="#fff"/><path d="M22.254,31.775a1.654,1.654,0,0,0,1.82,1.843,2.692,2.692,0,0,0,1.113-.172l.186-1.017a3.282,3.282,0,0,1-1.119.259c-1.131,0-.933-.843-.933-.843h2.141a7.543,7.543,0,0,0,.139-.962,1.413,1.413,0,0,0-1.5-1.54C23.038,29.343,22.254,30.485,22.254,31.775ZM24.1,30.287c.595,0,.485.668.485.722h-1.17C23.417,30.94,23.528,30.287,24.1,30.287Z" fill="#fff"/><path d="M30.775,33.483l.189-1.149a2.544,2.544,0,0,1-.872.259,1.043,1.043,0,0,1-1.048-1.184c0-1.244.643-1.928,1.359-1.928a1.879,1.879,0,0,1,.968.3l.172-1.116a3.778,3.778,0,0,0-1.186-.259c-1.217,0-2.4,1.056-2.4,3.038,0,1.314.639,2.182,1.9,2.182A4.874,4.874,0,0,0,30.775,33.483Z" fill="#fff"/><path d="M16.124,29.359a3.629,3.629,0,0,0-1.276.233L14.7,30.5a3.321,3.321,0,0,1,1.148-.186c.392,0,.68.044.68.363a.662.662,0,0,1-.036.265s-.309-.026-.452-.026c-.912,0-1.869.389-1.869,1.562a1,1,0,0,0,1.017,1.136,1.371,1.371,0,0,0,1.081-.484l-.035.4h.928l.414-2.9A1.246,1.246,0,0,0,16.124,29.359Zm.226,2.363c.02.178-.111,1.009-.746,1.009a.384.384,0,0,1-.412-.4c0-.289.157-.635.929-.635A.7.7,0,0,1,16.35,31.722Z" fill="#fff"/><path d="M18.558,33.592c.237,0,1.594.061,1.594-1.339,0-1.309-1.256-1.051-1.256-1.577,0-.262.2-.344.579-.344.148,0,.72.047.72.047l.133-.93a4.891,4.891,0,0,0-.972-.083c-.78,0-1.571.311-1.571,1.376,0,1.206,1.319,1.085,1.319,1.594,0,.339-.369.366-.653.366a3.442,3.442,0,0,1-.935-.16l-.141.921A3.361,3.361,0,0,0,18.558,33.592Z" fill="#fff"/><path d="M39.5,28.525l-.227,1.41a1.394,1.394,0,0,0-1.018-.548c-.966,0-1.77,1.164-1.77,2.5,0,.863.429,1.709,1.306,1.709a1.319,1.319,0,0,0,.982-.44l-.047.376h1.025l.8-5.011Zm-.489,2.75c0,.556-.276,1.3-.847,1.3-.38,0-.557-.319-.557-.818,0-.817.367-1.356.83-1.356C38.82,30.4,39.015,30.661,39.015,31.275Z" fill="#fff"/><path d="M10.418,33.538l.642-3.783.094,3.783h.726l1.355-3.783-.6,3.783h1.078l.831-5.017H12.876L11.837,31.6l-.054-3.078H10.245L9.4,33.538Z" fill="#fff"/><path d="M26.654,33.545c.307-1.744.364-3.16,1.1-2.9a4.048,4.048,0,0,1,.392-1.222,1.1,1.1,0,0,0-.2-.014c-.472,0-.821.645-.821.645l.094-.592H26.23l-.658,4.084Z" fill="#fff"/><path d="M33.207,29.359a3.631,3.631,0,0,0-1.277.233l-.153.908a3.321,3.321,0,0,1,1.148-.186c.393,0,.68.044.68.363a.679.679,0,0,1-.035.265s-.31-.026-.453-.026c-.911,0-1.869.389-1.869,1.562a1,1,0,0,0,1.017,1.136,1.371,1.371,0,0,0,1.081-.484l-.034.4h.928l.414-2.9A1.246,1.246,0,0,0,33.207,29.359Zm.226,2.363c.02.178-.112,1.009-.746,1.009a.384.384,0,0,1-.413-.4c0-.289.157-.635.929-.635A.712.712,0,0,1,33.433,31.722Z" fill="#fff"/><path d="M35.5,33.545c.307-1.744.363-3.16,1.095-2.9a4.048,4.048,0,0,1,.392-1.222,1.1,1.1,0,0,0-.2-.014c-.472,0-.822.645-.822.645l.094-.592h-.981l-.657,4.084Z" fill="#fff"/><path d="M19.932,18.548l1.555-9.125h2.487l-1.556,9.125Z" fill="#fff"/><path d="M31.405,9.619a6.448,6.448,0,0,0-2.23-.383c-2.457,0-4.189,1.238-4.2,3.012-.013,1.311,1.236,2.042,2.18,2.479.968.447,1.294.733,1.289,1.132-.006.612-.773.891-1.488.891a5.212,5.212,0,0,1-2.342-.479l-.32-.145-.349,2.043a7.858,7.858,0,0,0,2.771.487c2.614,0,4.312-1.224,4.331-3.118.01-1.038-.653-1.828-2.088-2.479-.87-.422-1.4-.7-1.4-1.132,0-.379.451-.785,1.425-.785a4.6,4.6,0,0,1,1.862.35l.223.1.337-1.978" fill="#fff"/><path d="M37.806,9.423H35.884a1.238,1.238,0,0,0-1.3.756l-3.694,8.364H33.5s.427-1.125.524-1.372l3.185,0c.075.32.3,1.368.3,1.368h2.308L37.806,9.422Zm-3.05,5.892c.206-.526.991-2.551.991-2.551-.015.024.2-.528.33-.871l.168.787.576,2.635Z" fill="#fff"/><path d="M17.82,9.423l-2.435,6.223-.26-1.265a7.119,7.119,0,0,0-3.444-3.828l2.226,7.981,2.632,0,3.916-9.108H17.82" fill="#fff"/><path d="M13.113,9.423H9.1l-.032.189a8.231,8.231,0,0,1,6.042,4.775l-.872-4.194a1.04,1.04,0,0,0-1.127-.77" fill="#f2ae14"/></svg>