<svg xmlns="http://www.w3.org/2000/svg" viewBox="0 0 50 50"><title>WebMoney</title><circle cx="25" cy="25" r="25" fill="#fff"/><path d="M24.881,0A24.913,24.913,0,0,1,35.824,2.531c.522.239,1.048.526,1.568.812L35.109,5.4,31.685,1.815l-5.9,5.253L22.312,3.3,11.465,13.086l6.945,7.689L15.7,23.162l6.852,7.689-2.712,2.386,9.8,10.937,5.8-5.349,5.045,5.733a28.1,28.1,0,0,1-3.282,2.2A24.91,24.91,0,0,1,0,24.979,24.95,24.95,0,0,1,24.881,0ZM20.313,23.449,26.26,18.1l5.33,5.97-5.949,5.348Zm4.235,10.316,5.9-5.4,5.377,5.969-5.948,5.349ZM16.081,13.277l5.946-5.349,5.328,5.97-5.947,5.349Zm10.893-2.866L31.4,6.4l4,4.442L30.971,14.9Zm7.9,18.387L39.3,24.786l4,4.488-4.425,4.014Zm3.251,8.5,4.425-4.012,3.994,4.441-4.424,4.059Zm2.458-20.107,2.949-2.675,2.664,2.962-2.949,2.674ZM36.775,8.357l2.949-2.721L42.39,8.644l-2.952,2.674Zm7.517,17.671,2.949-2.674,2.712,2.961-3,2.674ZM31.066,19.39l4.425-4.012,3.995,4.441-4.423,4.012Z" fill="#036cb5"/></svg>