<svg xmlns="http://www.w3.org/2000/svg" xmlns:xlink="http://www.w3.org/1999/xlink" width="25" height="25" viewBox="0 0 25 25" fill="none"><g opacity="1"  transform="translate(0 0)  rotate(0)"><path id="路径 1" fill-rule="evenodd" style="fill:#FFFFFF" opacity="1" d="M25 12.5C25 10.89 24.7 9.33 24.1 7.84C23.9 7.35 23.34 7.11 22.85 7.31C22.36 7.51 22.12 8.07 22.32 8.56C22.82 9.81 23.07 11.14 23.07 12.5C23.07 18.34 18.33 23.08 12.5 23.08C6.66 23.08 1.92 18.34 1.92 12.5C1.92 6.67 6.66 1.93 12.5 1.93C14.81 1.93 17 2.66 18.84 4.04C19.27 4.36 19.87 4.27 20.19 3.85C20.51 3.42 20.42 2.82 20 2.5C17.82 0.86 15.23 0 12.5 0C5.61 0 0 5.61 0 12.5C0 19.39 5.61 25 12.5 25C19.39 25 25 19.39 25 12.5Z"></path><path id="路径 2" fill-rule="evenodd" style="fill:#FFFFFF" opacity="1" d="M21.3772 6.82957C21.9872 6.82957 22.4872 6.32958 22.4872 5.7196C22.4872 5.10961 21.9872 4.60962 21.3772 4.60962C20.7672 4.60962 20.2672 5.10961 20.2672 5.7196C20.2672 6.32958 20.7672 6.82957 21.3772 6.82957Z"></path><path id="路径 3" fill-rule="evenodd" style="fill:#FFFFFF" opacity="1" d="M13.3824 24.567C13.6624 24.237 13.6224 23.757 13.2924 23.477C12.8924 23.137 12.5024 22.757 12.1324 22.357C10.9824 21.127 10.0724 19.707 9.4324 18.147C8.7424 16.467 8.3824 14.697 8.3724 12.867L8.3724 12.777C8.3724 11.217 8.6224 9.68696 9.1224 8.21696C9.8524 6.09696 11.1124 4.14696 12.7424 2.58696C12.8724 2.46696 12.9924 2.34696 13.1224 2.23696C13.4424 1.95696 13.4724 1.46696 13.1924 1.14696C12.9124 0.826963 12.4224 0.796963 12.1024 1.07696C11.9624 1.20696 11.8224 1.33696 11.6824 1.46696C9.8624 3.19696 8.4724 5.35696 7.6724 7.71696C7.1124 9.34696 6.8324 11.047 6.8324 12.777L6.8324 12.877C6.8424 14.907 7.2424 16.877 8.0124 18.737C8.7224 20.467 9.7324 22.037 11.0024 23.407C11.4124 23.847 11.8524 24.267 12.3024 24.647C12.4424 24.777 12.6224 24.837 12.8024 24.837C13.0224 24.837 13.2324 24.747 13.3824 24.567Z"></path><path id="路径 4" fill-rule="evenodd" style="fill:#FFFFFF" opacity="1" d="M12.2429 24.6487C12.7429 24.2787 13.2229 23.8687 13.6729 23.4387C15.0329 22.1487 16.1429 20.6387 16.9529 18.9487C17.8829 17.0587 18.4029 15.0287 18.5029 12.9087C18.5229 12.6487 18.5229 12.3887 18.5229 12.1387C18.5229 10.7787 18.3529 9.43874 18.0129 8.14875C17.3629 5.67875 16.0929 3.37875 14.3529 1.50875C14.2329 1.36875 14.0929 1.22875 13.9329 1.06875C13.6329 0.768755 13.1529 0.778755 12.8529 1.07875C12.5429 1.37875 12.5529 1.86875 12.8529 2.16875C12.9929 2.29875 13.1129 2.42875 13.2229 2.54875C14.7929 4.23875 15.9329 6.30875 16.5229 8.53875C16.8329 9.69874 16.9829 10.9187 16.9829 12.1287C16.9829 12.3587 16.9729 12.5987 16.9629 12.8387C16.8729 14.7387 16.4029 16.5687 15.5729 18.2787C14.8429 19.7987 13.8429 21.1587 12.6129 22.3287C12.2029 22.7087 11.7729 23.0787 11.3229 23.4187C10.9829 23.6687 10.9129 24.1487 11.1629 24.4887C11.3229 24.6987 11.5529 24.7987 11.7829 24.7987C11.9429 24.7987 12.1029 24.7487 12.2429 24.6487Z"></path><path id="路径 5" fill-rule="evenodd" style="fill:#FFFFFF" opacity="1" d="M21.5435,19.0172c-0.15,0 -0.31,-0.04 -0.44,-0.13c-1.63,-1.12 -3.42,-1.91 -5.34,-2.36c-1.19,-0.28 -2.43,-0.42 -3.67,-0.42v0c-0.94,0 -1.86,0.08 -2.77001,0.24c-2.05,0.35 -3.99,1.1 -5.75,2.21c-0.36,0.23 -0.84,0.12 -1.06,-0.24c-0.23,-0.36 -0.12,-0.84 0.24,-1.06c1.93,-1.22 4.06,-2.04 6.3,-2.43c1.00001,-0.17 2.02001,-0.26 3.04001,-0.26v0c1.36,0 2.71,0.16 4.02,0.46c2.1,0.5 4.07,1.37 5.86,2.59c0.35,0.24 0.44,0.72 0.2,1.07c-0.15,0.21 -0.39,0.33 -0.63,0.33zM24.0435,11.5372l-22.51001,-0.01c-0.42,0 -0.77,-0.35 -0.77,-0.77c0,-0.42 0.35,-0.77002 0.77,-0.77002l22.51001,0.01c0.42,0 0.77,0.34002 0.77,0.77002c0,0.42 -0.35,0.77 -0.77,0.77z"></path></g></svg>