<svg xmlns="http://www.w3.org/2000/svg" xmlns:xlink="http://www.w3.org/1999/xlink" width="16.93310546875" height="17.2999267578125" viewBox="0 0 16.93310546875 17.2999267578125" fill="none">
<path    stroke="rgba(15, 121, 227, 1)" stroke-width="1.2999999523162842" stroke-linejoin="round" stroke-linecap="round"  d="M2.46631 7.04993L2.46631 16.0404C2.46631 16.2021 2.52617 16.3571 2.63273 16.4714C2.73928 16.5857 2.8838 16.6499 3.03449 16.6499L6.44358 16.6499L6.44358 11.469C6.44358 11.2265 6.53337 10.9939 6.69321 10.8225C6.85304 10.651 7.06982 10.5547 7.29585 10.5547L10.1368 10.5547C10.3628 10.5547 10.5796 10.651 10.7394 10.8225C10.8992 10.9939 10.989 11.2265 10.989 11.469L10.989 16.6499L14.3981 16.6499C14.5488 16.6499 14.6933 16.5857 14.7999 16.4714C14.9064 16.3571 14.9663 16.2021 14.9663 16.0404L14.9663 7.04993">
</path>
<path    stroke="rgba(15, 121, 227, 1)" stroke-width="1.2999999523162842" stroke-linejoin="round" stroke-linecap="round"  d="M16.4666 8.65002L8.85548 0.803212C8.67691 0.600118 8.25941 0.59781 8.07762 0.803212L0.466553 8.65002M13.6094 5.68824L13.6094 1.26479L11.8951 1.26479L11.8951 3.91886">
</path>
</svg>
