<svg xmlns="http://www.w3.org/2000/svg" xmlns:xlink="http://www.w3.org/1999/xlink" width="16" height="16.0003662109375" viewBox="0 0 16 16.0003662109375" fill="none">
<path   fill-rule="evenodd"  fill="#A6A6A6"  d="M14.2438 11.7585C13.7432 11.2573 13.1583 10.8483 12.5158 10.5501C13.456 9.79151 14.0019 8.64785 14.0006 7.43977C13.9942 6.36956 13.5617 5.34597 12.7989 4.59535C12.036 3.84473 11.0055 3.4289 9.93535 3.43981C8.25295 3.46779 6.76769 4.54499 6.21854 6.13549C5.66938 7.72598 6.1736 9.4901 7.48033 10.5501C6.84546 10.8445 6.26178 11.2477 5.75235 11.7585C4.66506 12.8415 4.0374 14.3023 4.00004 15.8365C3.99901 15.8796 4.01541 15.9213 4.04553 15.9521C4.07565 15.983 4.11693 16.0003 4.16004 16.0003L5.28003 16.0003C5.36622 16.0011 5.43725 15.9329 5.44003 15.8467C5.47528 14.6902 5.95263 13.5912 6.77378 12.776C7.62759 11.9182 8.78903 11.4375 9.99935 11.441C11.2179 11.441 12.3635 11.9146 13.2249 12.776C14.045 13.5921 14.5225 14.6904 14.5599 15.8467C14.5625 15.9325 14.6342 16.0003 14.7199 16.0003L15.8399 16.0003C15.9295 16.0003 16.0025 15.9261 15.9999 15.8365C15.9629 14.3014 15.3336 12.8402 14.2438 11.7585ZM9.99935 10.001C9.31998 10.0033 8.66805 9.73312 8.18944 9.25096C7.46456 8.52079 7.24639 7.42801 7.63533 6.47548C8.02426 5.52294 8.94496 4.89519 9.97375 4.88108C10.6531 4.87508 11.3073 5.13778 11.7939 5.61195C12.2905 6.09835 12.5619 6.74858 12.5619 7.43977C12.5619 8.12457 12.2956 8.76584 11.8118 9.25096C11.3321 9.73212 10.6801 10.0017 10.0006 9.99975L9.99935 10.001ZM4.99076 7.96713C4.94066 7.48042 4.96049 6.98904 5.04963 6.50794C5.06306 6.43592 5.02626 6.3639 4.96004 6.33258C4.01333 5.91084 3.41588 4.95825 3.44837 3.92237C3.46572 3.28104 3.72445 2.66988 4.17284 2.21102C4.66125 1.70698 5.336 1.4268 6.03779 1.43663C6.90008 1.44539 7.6999 1.88813 8.16512 2.61422C8.20509 2.67546 8.2815 2.70181 8.35072 2.67822C8.70272 2.55534 9.0752 2.46958 9.45663 2.42862C9.50881 2.4232 9.55501 2.39255 9.58029 2.34659C9.60557 2.30062 9.60671 2.24519 9.58335 2.19822C8.91103 0.868933 7.5567 0.0224145 6.06722 0.000484499C3.85029 -0.0340752 2.00198 1.78479 2.00198 3.99789C2.00198 5.25484 2.58054 6.37482 3.48677 7.10826C2.85062 7.40265 2.26438 7.80841 1.75623 8.31657C0.666108 9.3986 0.0368146 10.8604 8.20424e-05 12.3959C-0.00130473 12.4392 0.014938 12.4812 0.0450951 12.5123C0.0752523 12.5435 0.116744 12.561 0.160081 12.561L1.28263 12.561C1.36882 12.5617 1.43985 12.4936 1.44263 12.4074C1.47756 11.2504 1.95492 10.1509 2.77638 9.33544C3.3534 8.75538 4.07721 8.34303 4.87044 8.14249C4.94815 8.12252 4.99906 8.04808 4.98948 7.96841L4.99076 7.96713Z">
</path>
</svg>
