<svg xmlns="http://www.w3.org/2000/svg" xmlns:xlink="http://www.w3.org/1999/xlink" width="16" height="15.479248046875" viewBox="0 0 16 15.479248046875" fill="none">
<path   fill-rule="evenodd"  fill="#0F79E3"  d="M14.4913 15.4792L1.50869 15.4792C0.673912 15.4792 0 14.801 0 13.9705L0 4.62271C0 3.78793 0.67826 3.11401 1.50869 3.11401L14.4913 3.11401C15.3261 3.11401 16 3.79227 16 4.62271L16 13.9705C16.0043 14.801 15.3261 15.4792 14.4913 15.4792ZM1.50869 4.15314C1.25217 4.15314 1.04348 4.36184 1.04348 4.61836L1.04348 13.9662C1.04348 14.2227 1.25217 14.4314 1.50869 14.4314L14.4913 14.4314C14.7478 14.4314 14.9565 14.2227 14.9565 13.9662L14.9565 4.61836C14.9565 4.36184 14.7478 4.15314 14.4913 4.15314L1.50869 4.15314Z">
</path>
<path d="M10.3086 9.28792C10.3086 9.52091 10.4329 9.73621 10.6347 9.85271C10.8365 9.96921 11.0851 9.96921 11.2869 9.85271C11.4886 9.73621 11.6129 9.52091 11.6129 9.28792C11.6129 9.05492 11.4886 8.83962 11.2869 8.72312C11.0851 8.60662 10.8365 8.60662 10.6347 8.72312C10.4329 8.83962 10.3086 9.05492 10.3086 9.28792Z"   fill="#0F79E3" >
</path>
<path   fill-rule="evenodd"  fill="#0F79E3"  d="M15.2914 11.8009L10.7566 11.8009C9.37402 11.8009 8.24794 10.6748 8.24794 9.2922C8.24794 7.90959 9.37402 6.7835 10.7566 6.7835L14.9914 6.7835L14.9914 7.82698L10.7566 7.82698C9.94794 7.82698 9.29141 8.4835 9.29141 9.2922C9.29141 10.1009 9.94794 10.7574 10.7566 10.7574L15.2914 10.7574L15.2914 11.8009ZM6.5349 3.97916L5.96533 3.10525L10.3305 0.257425C11.0566 -0.216488 12.0436 -0.0164878 12.5305 0.696555L14.2827 3.27046L13.4218 3.85742L11.6697 1.28351C11.5001 1.03568 11.1566 0.96612 10.9045 1.13134L6.5349 3.97916Z">
</path>
</svg>
