<svg xmlns="http://www.w3.org/2000/svg" xmlns:xlink="http://www.w3.org/1999/xlink" width="23" height="23" viewBox="0 0 23 23" fill="none"><g opacity="1" transform="translate(0 0)  rotate(0)"><g opacity="1" transform="translate(0 0)  rotate(0)"><g opacity="1" transform="translate(0 0)  rotate(0)"><g opacity="1" transform="translate(0 0)  rotate(0)"><path id="Vector" fill-rule="evenodd" style="fill:#F0CD00" opacity="1" d="M19.29 3.04C18.69 2.48 18.03 2 17.32 1.58C15.61 0.58 13.62 0 11.5 0C5.15 0 0 5.15 0 11.5C0 13.62 0.58 15.61 1.58 17.32C2 18.03 2.48 18.69 3.04 19.29C5.14 21.57 8.15 23 11.5 23C17.85 23 23 17.85 23 11.5C23 8.15 21.57 5.14 19.29 3.04Z"></path><path id="Vector" fill-rule="evenodd" style="fill:#FFDE50" opacity="1" d="M11.9284 0.00769043C5.7784 0.22769 0.858398 5.28769 0.858398 11.4977C0.858398 17.7077 5.7784 22.7677 11.9284 22.9877C18.0784 22.7677 22.9984 17.7077 22.9984 11.4977C22.9984 5.28769 18.0784 0.22769 11.9284 0.00769043Z"></path><path id="Vector" fill-rule="evenodd" style="fill:#FFEA94" opacity="1" d="M17.3191 1.57935L1.5791 17.3193C1.9991 18.0193 2.4791 18.6793 3.0391 19.2793L19.2791 3.03935C18.6791 2.47935 18.0291 1.99935 17.3191 1.57935Z"></path><path id="Vector" fill-rule="evenodd" style="fill:#FFEA94" opacity="1" d="M20.5348 4.38538L4.38477 20.5354C5.26477 21.2254 6.24477 21.7954 7.29477 22.2154L22.2148 7.29538C21.7948 6.24538 21.2248 5.26538 20.5348 4.38538Z"></path><path id="Vector" fill-rule="evenodd" style="fill:#FAA300" opacity="1" d="M11.5005 2.56067C6.56055 2.56067 2.56055 6.56067 2.56055 11.5007C2.56055 11.5307 2.56055 11.5707 2.56055 11.6107C2.57055 12.7207 2.79055 13.7907 3.18055 14.7807C3.44055 15.4407 3.78055 16.0707 4.19055 16.6407C4.49055 17.0607 4.82055 17.4507 5.18055 17.8107C5.67055 18.3007 6.22055 18.7407 6.81055 19.1007C8.17055 19.9507 9.78055 20.4307 11.5005 20.4307C16.4305 20.4307 20.4305 16.4307 20.4305 11.5007C20.4305 9.78067 19.9505 8.17067 19.1005 6.81067C18.7405 6.22067 18.3005 5.67067 17.8105 5.18067C17.4505 4.82067 17.0605 4.49067 16.6405 4.19067C16.0705 3.78067 15.4405 3.44067 14.7805 3.18067C13.7905 2.79067 12.7205 2.57067 11.6105 2.56067C11.5705 2.56067 11.5305 2.56067 11.5005 2.56067Z"></path><path id="Vector" fill-rule="evenodd" style="fill:#FFBD00" opacity="1" d="M11.6105 2.56067C11.5705 2.56067 11.5305 2.56067 11.5005 2.56067C6.56055 2.56067 2.56055 6.56067 2.56055 11.5007C2.56055 11.5307 2.56055 11.5707 2.56055 11.6107C2.57055 12.7307 2.79055 13.7907 3.18055 14.7807C3.44055 15.4407 3.78055 16.0707 4.19055 16.6507C4.49055 17.0607 4.82055 17.4607 5.18055 17.8207L17.8205 5.18067C17.4605 4.82067 17.0605 4.49067 16.6505 4.19067C16.0705 3.78067 15.4405 3.44067 14.7805 3.18067C13.7905 2.79067 12.7305 2.57067 11.6105 2.56067Z"></path><path id="Vector" fill-rule="evenodd" style="fill:#F68E00" opacity="1" d="M11.4941 2.56067C11.3341 2.56067 11.1641 2.56067 10.9941 2.57067C15.6941 2.84067 19.4241 6.73067 19.4241 11.5007C19.4241 16.2607 15.6941 20.1607 10.9941 20.4207C11.1641 20.4307 11.3341 20.4307 11.4941 20.4307C16.4341 20.4307 20.4341 16.4307 20.4341 11.5007C20.4341 6.56067 16.4341 2.56067 11.4941 2.56067Z"></path></g><path id="Vector" fill-rule="evenodd" style="fill:#F68E00" opacity="1" d="M12.1493,8.79595c0,-0.69 -0.38,-1.29 -0.95,-1.6v3.62005c0.77,0.23 1.36,0.56 1.8,1c0.6,0.6 0.91,1.41 0.91,2.39c0,1.68 -1.15,3.09 -2.71,3.48v0.72c0,0.48 -0.39,0.88 -0.88,0.88c-0.48004,0 -0.87004,-0.4 -0.87004,-0.88v-0.72c-1.56,-0.39 -2.71,-1.8 -2.71,-3.48c0,-0.48 0.39,-0.88 0.88,-0.88c0.48,0 0.88,0.4 0.88,0.88c0,0.69 0.38,1.29 0.95,1.6v-3.62c-0.79,-0.24 -1.37,-0.57 -1.81,-1.01c-0.61,-0.6 -0.9,-1.38005 -0.9,-2.38005c0,-1.67 1.15,-3.08 2.71,-3.47v-0.72c0,-0.49 0.39,-0.88 0.87004,-0.88c0.49,0 0.88,0.39 0.88,0.88v0.72c1.56,0.39 2.71,1.8 2.71,3.47c0,0.49 -0.4,0.88 -0.88,0.88c-0.49,0 -0.88,-0.39 -0.88,-0.88zM11.1993,15.806c0.57,-0.31 0.95,-0.91 0.95,-1.6c0,-0.65 -0.18,-1.16 -0.95,-1.52zM9.44926,7.19595c-0.57,0.31 -0.95,0.91 -0.95,1.6c0,0.67 0.2,0.96 0.38,1.14c0.14,0.14005 0.33,0.26005 0.57,0.37005z"></path><path id="Vector" fill-rule="evenodd" style="fill:#FFEA94" opacity="1" d="M10.6221,10.306v-3.11005c-0.57,0.31 -0.94999,0.91 -0.94999,1.6c0,0.67 0.2,0.96 0.37999,1.14c0.14,0.14005 0.33,0.26005 0.57,0.37005zM8.81211,11.176c-0.61,-0.6 -0.9,-1.38005 -0.9,-2.38005c0,-1.67 1.15,-3.08 2.70999,-3.47v-0.72c0,-0.49 0.39,-0.88 0.87,-0.88c0.49,0 0.88,0.39 0.88,0.88v0.72c1.56,0.39 2.71,1.8 2.71,3.47c0,0.49 -0.4,0.88 -0.88,0.88c-0.49,0 -0.88,-0.39 -0.88,-0.88c0,-0.69 -0.38,-1.29 -0.95,-1.6v3.62005c0.77,0.23 1.36,0.56 1.8,1c0.6,0.6 0.91,1.41 0.91,2.39c0,1.68 -1.15,3.09 -2.71,3.48v0.72c0,0.48 -0.39,0.88 -0.88,0.88c-0.48,0 -0.87,-0.4 -0.87,-0.88v-0.72c-1.55999,-0.39 -2.70999,-1.8 -2.70999,-3.48c0,-0.48 0.39,-0.88 0.88,-0.88c0.48,0 0.88,0.4 0.88,0.88c0,0.69 0.37999,1.29 0.94999,1.6v-3.62c-0.78999,-0.24 -1.36999,-0.57 -1.80999,-1.01zM13.3221,14.206c0,-0.65 -0.18,-1.16 -0.95,-1.52v3.12c0.57,-0.31 0.95,-0.91 0.95,-1.6z"></path></g></g></g></svg>