<svg xmlns="http://www.w3.org/2000/svg" xmlns:xlink="http://www.w3.org/1999/xlink" width="200" height="200" viewBox="0 0 200 200" fill="none"><g opacity="1"  transform="translate(0 0)  rotate(0)"><mask id="bg-mask-0" fill="white"><use transform="translate(0 0)  rotate(0)" xlink:href="#path_0"></use></mask><g mask="url(#bg-mask-0)" ><path id="路径 1" fill-rule="evenodd" style="fill:#0E5FFF" opacity="1" d="M23.44,82.81c0,32.74 26.63,59.38 59.37,59.38c32.74,0 59.38,-26.64 59.38,-59.38c0,-32.74 -26.64,-59.37 -59.38,-59.37c-32.74,0 -59.37,26.63 -59.37,59.37zM82.81,12.5c38.84,0 70.31,31.48 70.31,70.31c0,38.84 -31.47,70.32 -70.31,70.32c-38.83,0 -70.31,-31.48 -70.31,-70.32c0,-38.83 31.48,-70.31 70.31,-70.31zM185.31,174.26c1.47,1.47 2.29,3.46 2.29,5.53c0,2.07 -0.82,4.06 -2.29,5.52c-1.46,1.47 -3.45,2.29 -5.52,2.29c-2.07,0 -4.06,-0.82 -5.52,-2.29l-41.6,-41.59c4.04,-3.31 7.74,-7.01 11.05,-11.05z"></path><path id="路径 2" fill-rule="evenodd" style="fill:#0E5FFF" opacity="1" d="M128.147 101.818C130.677 95.7885 131.957 89.3985 131.957 82.8084C131.937 69.2085 126.307 56.2284 116.387 46.9184C114.497 45.1584 111.527 45.2584 109.757 47.1384C107.997 49.0284 108.097 51.9984 109.977 53.7684C118.107 61.3684 122.587 71.6884 122.587 82.8084C122.597 88.0884 121.547 93.3185 119.497 98.1884C118.897 99.6384 119.047 101.288 119.917 102.598C120.787 103.898 122.257 104.688 123.827 104.688C125.717 104.688 127.417 103.558 128.147 101.818Z"></path></g></g><defs><rect id="path_0" x="0" y="0" width="200" height="200" /></defs></svg>