<?xml version="1.0" encoding="utf-8"?>
<!-- Generator: Adobe Illustrator 24.1.3, SVG Export Plug-In . SVG Version: 6.00 Build 0)  -->
<svg version="1.1" id="Layer_1" xmlns="http://www.w3.org/2000/svg" xmlns:xlink="http://www.w3.org/1999/xlink" x="0px" y="0px"
	 viewBox="0 0 140 45" style="enable-background:new 0 0 140 45;" xml:space="preserve">
<style type="text/css">
	.st0{fill:#B0D320;}
	.st1{fill:url(#SVGID_1_);}
</style>
<g>
	<g>
		<polygon class="st0" points="53.2,35.3 57,44.4 69.8,44.4 61.6,24.9 		"/>
		<polygon class="st0" points="67,0 58.5,10.4 62.5,20 78.8,0 		"/>
		<linearGradient id="SVGID_1_" gradientUnits="userSpaceOnUse" x1="39.1263" y1="-1.0676" x2="23.7126" y2="39.1682">
			<stop  offset="4.649394e-02" style="stop-color:#00A1D6"/>
			<stop  offset="0.6287" style="stop-color:#1A7BB8"/>
			<stop  offset="0.987" style="stop-color:#2668AA"/>
		</linearGradient>
		<polygon class="st1" points="42.4,44.4 60.5,22.3 51.2,0 50.9,0 38.4,0 19.2,0 8.4,0 0,44.5 18.8,44.5 27,34 12.8,34 14.2,26.6 
			32.7,26.6 39.9,17.3 16,17.3 17.2,10.8 42.9,10.8 48.1,23.1 30.7,44.4 		"/>
	</g>
	<path class="st0" d="M80.2,23.2h5.7l-3.6,17H91l-0.9,4.2H75.7L80.2,23.2z"/>
	<path class="st0" d="M96.2,28.7h5.3l-3.3,15.8h-5.3L96.2,28.7z M97.6,22.1h5.3l-0.8,4h-5.3L97.6,22.1z"/>
	<path class="st0" d="M120.4,38.2l-1.3,6.3h-5.4l1.6-7.9c0.1-0.3,0.1-0.6,0.1-0.8c0-0.3,0-0.5,0-0.7c0-0.7-0.2-1.3-0.5-1.7
		c-0.3-0.4-0.8-0.6-1.5-0.6c-1.1,0-2,0.4-2.7,1.3c-0.7,0.9-1.3,2.1-1.6,3.9l-1.4,6.6h-5.5l3.3-15.9h4.9l-0.6,2.8
		c0.9-1,1.8-1.8,2.8-2.3c1-0.5,2-0.8,3.1-0.8c1.6,0,2.9,0.5,3.8,1.4c0.9,1,1.3,2.3,1.3,4.1c0,0.5,0,1.2-0.1,1.9
		C120.8,36.5,120.6,37.3,120.4,38.2z"/>
	<path class="st0" d="M139.6,38h-11.2c0.1,1.2,0.5,2,1.1,2.6c0.7,0.6,1.6,0.8,2.9,0.8c0.9,0,1.7-0.1,2.6-0.3
		c0.9-0.2,1.8-0.5,2.7-0.9l-0.6,3.9c-0.9,0.3-1.9,0.5-2.8,0.7c-1,0.1-1.9,0.2-2.9,0.2c-2.4,0-4.3-0.7-5.7-2
		c-1.4-1.3-2.1-3.1-2.1-5.4c0-1.3,0.3-2.5,0.8-3.8c0.5-1.2,1.2-2.3,2-3.1c0.8-0.8,1.8-1.4,3-1.8c1.2-0.4,2.5-0.6,4-0.6
		c2.2,0,3.8,0.6,5,1.8c1.2,1.2,1.7,2.9,1.7,5c0,0.4,0,0.9-0.1,1.4C139.9,36.9,139.8,37.5,139.6,38z M135.5,35c0-0.2,0-0.4,0.1-0.5
		c0-0.1,0-0.2,0-0.3c0-0.9-0.2-1.6-0.7-2.1c-0.5-0.5-1.2-0.8-2-0.8c-0.8,0-1.6,0.3-2.3,1c-0.7,0.6-1.1,1.5-1.4,2.6H135.5z"/>
</g>
</svg>
