<svg xmlns="http://www.w3.org/2000/svg" xmlns:xlink="http://www.w3.org/1999/xlink" width="19.9056396484375" height="22" viewBox="0 0 19.9056396484375 22" fill="none">
<path d="M15.1893 12.5701C12.587 12.5701 10.4756 14.6814 10.4756 17.2838C10.4756 19.8862 12.587 21.9976 15.1893 21.9976C17.7917 21.9976 19.9031 19.8862 19.9031 17.2838C19.9031 14.6814 17.7942 12.5701 15.1893 12.5701ZM15.1893 20.9493C13.1664 20.9493 11.5239 19.3093 11.5239 17.2838C11.5239 15.2584 13.1664 13.6184 15.1893 13.6184C17.2123 13.6184 18.8572 15.2584 18.8572 17.2838C18.8572 19.3093 17.2148 20.9493 15.1893 20.9493Z" fill-rule="evenodd"  fill="#FFFFFF" >
</path>
<path d="M18.8575 0L1.04832 0C0.471376 0 0 0.471376 0 1.04832L0 20.9517C0 21.5286 0.471376 22 1.04832 22L9.16728 22C9.45698 22 9.69021 21.7643 9.69021 21.4771C9.69021 21.1874 9.45452 20.9541 9.16728 20.9541L1.57371 20.9541C1.28646 20.9541 1.05078 20.7184 1.05078 20.4312L1.05078 1.57125C1.05078 1.28401 1.28646 1.04832 1.57371 1.04832L18.3346 1.04832C18.6218 1.04832 18.8575 1.28401 18.8575 1.57125L18.8575 10.9988C18.8575 11.2885 19.0932 11.5217 19.3804 11.5217C19.6677 11.5217 19.9034 11.286 19.9034 10.9988L19.9034 1.04832C19.9034 0.471376 19.432 0 18.8575 0Z"   fill="#FFFFFF" >
</path>
<path d="M15.7148 17.5908L15.7148 15.7126C15.7148 15.4254 15.4791 15.1897 15.1919 15.1897C14.9047 15.1897 14.669 15.4254 14.669 15.7126L14.669 17.8068C14.669 17.8117 14.6714 17.8142 14.6714 17.8191C14.6739 17.8829 14.6837 17.9468 14.7107 18.0057C14.7254 18.0425 14.7524 18.072 14.777 18.1039C14.7942 18.126 14.804 18.153 14.8236 18.1751L15.7639 19.1154C15.9677 19.3192 16.3016 19.3192 16.5054 19.1154C16.7091 18.9116 16.7091 18.5777 16.5054 18.374L15.7148 17.5908ZM4.71607 6.28512L15.1919 6.28512C15.4791 6.28512 15.7148 6.04944 15.7148 5.76219C15.7148 5.47495 15.4791 5.23926 15.1919 5.23926L4.71607 5.23926C4.42882 5.23926 4.19313 5.47495 4.19313 5.76219C4.19068 6.04944 4.42637 6.28512 4.71607 6.28512ZM15.7148 9.42763C15.7148 9.14039 15.4791 8.9047 15.1919 8.9047L4.71607 8.9047C4.42882 8.9047 4.19313 9.14039 4.19313 9.42763C4.19313 9.71488 4.42882 9.95056 4.71607 9.95056L15.1919 9.95056C15.4791 9.95056 15.7148 9.71488 15.7148 9.42763ZM4.71607 12.5701C4.42882 12.5701 4.19313 12.8058 4.19313 13.0931C4.19313 13.3803 4.42882 13.616 4.71607 13.616L8.90689 13.616C9.19414 13.616 9.42982 13.3803 9.42982 13.0931C9.42982 12.8058 9.19414 12.5701 8.90689 12.5701L4.71607 12.5701Z" fill-rule="evenodd"  fill="#FFFFFF" >
</path>
</svg>
