<svg xmlns="http://www.w3.org/2000/svg" xmlns:xlink="http://www.w3.org/1999/xlink" width="23" height="26.489990234375" viewBox="0 0 23 26.489990234375" fill="none">
<path d="M11.2343 10.7476L11.2343 12.9709L11.8783 12.9709C12.7507 12.9709 13.1878 12.5968 13.1878 11.8468C13.1878 11.1151 12.7557 10.7476 11.8915 10.7492L11.2326 10.7492L11.2326 10.7476L11.2343 10.7476ZM19.9009 7.86367L19.9009 1.65551C19.9009 0.741668 19.1493 0 18.2239 0L4.80595 0C3.87886 0 3.12891 0.741668 3.12891 1.65551L3.12891 7.86367L0 7.86367L0 18.2106L3.12891 18.2106L3.12891 24.8326C3.12891 25.7465 3.87886 26.4882 4.80429 26.4882L18.2239 26.4882C19.1509 26.4882 19.9009 25.7465 19.9009 24.8326L19.9009 18.2106L23 18.2106L23 7.86367L19.9009 7.86367ZM18.2239 2.06939L18.2239 7.86367L4.80595 7.86367L4.80595 2.06939L18.2239 2.06939ZM14.7522 11.7872C14.7522 12.4925 14.489 13.0587 13.9659 13.4841C13.4411 13.9096 12.7872 14.1132 12.0008 14.0967L11.2326 14.0967L11.2326 16.4972L9.74764 16.4972L9.74764 9.61024L12.1481 9.61024C13.8831 9.61024 14.7506 10.3353 14.7522 11.7872ZM3.99143 14.9161L3.47823 16.4938L1.8641 16.4938L4.41856 9.60692L6.16512 9.60692L8.66991 16.4938L7.04751 16.4938L6.52602 14.9178L3.98978 14.9178L3.99143 14.9161ZM11.5157 25.6604C11.2946 25.6622 11.0818 25.5759 10.9244 25.4206C10.7669 25.2653 10.6777 25.0538 10.6764 24.8326C10.6764 24.3757 11.0522 24.0049 11.5157 24.0049C11.9793 24.0049 12.3534 24.3757 12.3534 24.8326C12.3534 25.2896 11.9793 25.6604 11.5157 25.6604ZM18.2239 23.1771L4.80595 23.1771L4.80595 18.2123L18.2239 18.2123L18.2239 23.1788L18.2239 23.1771ZM19.8347 13.4841C19.3099 13.9096 18.6559 14.1132 17.8696 14.0967L17.1031 14.0967L17.1031 16.4972L15.6164 16.4972L15.6164 9.61024L18.0169 9.61024C19.7535 9.61024 20.621 10.3353 20.621 11.7872C20.621 12.4925 20.3578 13.0587 19.8347 13.4841ZM17.7603 10.7476L17.1031 10.7476L17.1031 12.9726L17.7471 12.9726C18.6195 12.9726 19.0566 12.5968 19.0566 11.8468C19.0566 11.1134 18.6261 10.7476 17.7603 10.7476ZM5.27445 10.7972L5.23307 10.7972C5.21651 10.9959 5.17512 11.1896 5.11221 11.3783L4.31426 13.7838L6.17505 13.7838L5.38041 11.3965C5.32187 11.201 5.28631 10.9993 5.27445 10.7956L5.27445 10.7972Z" fill-rule="evenodd"  fill="#FFFFFF" >
</path>
</svg>
