<svg xmlns="http://www.w3.org/2000/svg" xmlns:xlink="http://www.w3.org/1999/xlink" width="23" height="23" viewBox="0 0 23 23" fill="none">
<path d="M12.6129 0C13.4319 0 14.0968 0.6649 14.0968 1.48387L14.0968 4.45161L21.5161 4.45161C22.3351 4.45161 23 5.11651 23 5.93548L23 9.64516C23 10.4641 22.3351 11.129 21.5161 11.129L20.7742 11.129L20.7742 21.5161C20.7744 22.2927 20.176 22.9381 19.4016 22.9963L19.2903 23L3.70968 23C2.89071 23 2.22581 22.3351 2.22581 21.5161L2.22581 11.129L1.48387 11.129C0.707343 11.1293 0.0619492 10.5308 0.00370968 9.75645L0 9.64516L0 5.93548C0 5.11651 0.6649 4.45161 1.48387 4.45161L8.16129 4.45161L8.16129 1.48387C8.16129 0.6649 8.82619 1.64743e-16 9.64516 0L12.6129 0ZM19.2903 11.129L3.70968 11.129L3.70968 21.5161L6.30645 21.5161L6.30645 16.6935C6.30645 16.2841 6.6389 15.9516 7.04839 15.9516C7.45787 15.9516 7.79032 16.2841 7.79032 16.6935L7.79032 21.5161L10.7581 21.5161L10.7581 16.6935C10.7581 16.2841 11.0905 15.9516 11.5 15.9516C11.9095 15.9516 12.2419 16.2841 12.2419 16.6935L12.2419 21.5161L15.2097 21.5161L15.2097 16.6935C15.2097 16.2841 15.5421 15.9516 15.9516 15.9516C16.3611 15.9516 16.6935 16.2841 16.6935 16.6935L16.6935 21.5161L19.2903 21.5161L19.2903 11.129ZM21.5161 5.93548L1.48387 5.93548L1.48387 9.64516L21.5161 9.64516L21.5161 5.93548ZM12.6129 1.48387L9.64516 1.48387L9.64516 4.45161L12.6129 4.45161L12.6129 1.48387Z" fill-rule="evenodd"  fill="#FFFFFF" >
</path>
</svg>
