<svg xmlns="http://www.w3.org/2000/svg" xmlns:xlink="http://www.w3.org/1999/xlink" width="23" height="23" viewBox="0 0 23 23" fill="none">
<path d="M22.096 7.02344C21.5167 5.65392 20.6876 4.42415 19.6318 3.36825C18.5759 2.31235 17.3461 1.4833 15.9766 0.904028C14.5583 0.304153 13.0521 0 11.5 0C9.94784 0 8.44173 0.304153 7.02344 0.904028C5.65395 1.4833 4.42415 2.31238 3.36828 3.36828C2.31238 4.42415 1.4833 5.65395 0.904053 7.02346C0.304177 8.44173 0 9.94787 0 11.5C0 13.0522 0.304177 14.5583 0.904053 15.9766C1.4833 17.3461 2.31238 18.5759 3.36828 19.6318C4.42415 20.6877 5.65395 21.5167 7.02344 22.096C8.44173 22.6959 9.94784 23 11.5 23C13.0521 23 14.5583 22.6959 15.9766 22.096C17.3461 21.5167 18.5758 20.6876 19.6317 19.6318C20.6876 18.5759 21.5167 17.3461 22.096 15.9766C22.6958 14.5583 23 13.0522 23 11.5C23 9.94787 22.6959 8.44173 22.096 7.02344ZM20.6583 15.3685C20.1577 16.5519 19.441 17.6149 18.528 18.528C17.6149 19.441 16.5519 20.1577 15.3685 20.6583C14.1437 21.1764 12.8421 21.439 11.5 21.439C10.1579 21.439 8.85635 21.1764 7.63153 20.6583C6.44808 20.1577 5.3851 19.441 4.47204 18.528C3.55898 17.6149 2.84225 16.5519 2.3417 15.3685C1.82364 14.1437 1.56096 12.8421 1.56096 11.5C1.56096 10.1579 1.82364 8.85638 2.3417 7.63155C2.84225 6.44811 3.55898 5.38512 4.47204 4.47206C5.3851 3.55901 6.44808 2.84227 7.63153 2.34172C8.85635 1.82367 10.1579 1.56099 11.5 1.56099C12.8421 1.56099 14.1437 1.82367 15.3685 2.34172C16.5519 2.84227 17.6149 3.55901 18.528 4.47206C19.441 5.3851 20.1577 6.44811 20.6583 7.63155C21.1763 8.85638 21.4391 10.1579 21.4391 11.5C21.4391 12.8421 21.1763 14.1437 20.6583 15.3685Z" fill-rule="evenodd"  fill="#FFFFFF" >
</path>
<path d="M13.8396 6.56394C13.3043 6.14012 12.565 5.94188 11.7318 5.85259L11.6905 5.84814L11.6489 5.84814C11.6482 5.84814 11.6477 5.84814 11.647 5.84814C10.2846 5.84814 9.26461 6.22655 8.61545 6.97282C7.79137 7.9202 7.92341 9.05958 7.94118 9.18638L9.43829 9.18614C9.43829 9.18614 9.43958 8.9731 9.44033 8.97956C9.43968 8.97387 9.42846 8.40524 9.80361 7.98552C10.186 7.55776 10.8793 7.43344 11.4559 7.41254C11.5595 7.4088 11.6631 7.41494 11.7657 7.43031C12.5651 7.5501 13.1278 7.8537 13.4399 8.33427C13.5176 8.45399 13.5645 8.58984 13.5911 8.72677C13.6725 9.14646 13.5607 9.58136 13.2994 9.91973C12.8229 10.5368 12.3691 10.9195 11.9233 11.3356C11.3108 11.9074 10.9065 12.5227 10.8682 12.8963C10.8025 13.5358 10.806 14.3317 10.8071 14.3646L12.2134 14.3646C12.2132 14.3586 12.2134 13.8608 12.2286 13.3346C12.2337 13.1555 12.2658 12.978 12.3455 12.8175C12.4419 12.6234 12.7673 12.3636 12.9064 12.2338C13.4738 11.7042 13.9471 11.1971 14.6796 10.1885C14.9708 9.78745 15.1244 8.54104 14.8597 7.79097C14.7157 7.38269 14.464 7.05834 13.8396 6.56394Z"   fill="#FFFFFF" >
</path>
<path d="M10.7871 15.3604L12.212 15.3604L12.212 16.9219L10.7871 16.9219L10.7871 15.3604Z"   fill="#FFFFFF" >
</path>
</svg>
