<svg xmlns="http://www.w3.org/2000/svg" xmlns:xlink="http://www.w3.org/1999/xlink" width="14" height="16.000000000000004" viewBox="0 0 14 16.000000000000004" fill="none"><g opacity="1"  transform="translate(0 0)  rotate(0)"><path id="分组 1" fill-rule="evenodd" style="fill:#E5E5E5" opacity="1" d="M3,2c0,-1.1 0.9,-2 2,-2h5l4,4v7c0,1.1 -0.9,2 -2,2h-7c-1.1,0 -2,-0.9 -2,-2zM12.5,4l-2.5,-2.5v2.5zM9,16h-7c-1.1,0 -2,-0.9 -2,-2v-9c0,-1.1 0.9,-2 2,-2v1c-0.5,0 -1,0.4 -1,1v9c0,0.6 0.5,1 1,1h7c0.5,0 1,-0.5 1,-1h1c0,1.1 -0.9,2 -2,2zM12,7.5c0,-0.3 -0.2,-0.5 -0.5,-0.5h-7c-0.3,0 -0.5,0.2 -0.5,0.5c0,0.3 0.2,0.5 0.5,0.5h7c0.3,0 0.5,-0.2 0.5,-0.5zM4.5,9c-0.3,0 -0.5,0.2 -0.5,0.5c0,0.3 0.2,0.5 0.5,0.5h7c0.3,0 0.5,-0.2 0.5,-0.5c0,-0.3 -0.2,-0.5 -0.5,-0.5zM4.5,11c-0.3,0 -0.5,0.2 -0.5,0.5c0,0.3 0.2,0.5 0.5,0.5h4c0.3,0 0.5,-0.2 0.5,-0.5c0,-0.3 -0.2,-0.5 -0.5,-0.5z"></path></g></svg>