<svg xmlns="http://www.w3.org/2000/svg" xmlns:xlink="http://www.w3.org/1999/xlink" width="23" height="23" viewBox="0 0 23 23" fill="none">
<path d="M11.5 0C5.15911 0 0 5.15987 0 11.5C0 17.8401 5.12961 23 11.4357 23L11.5643 23C17.8696 23 23 17.8401 23 11.5C23 5.15987 17.8409 0 11.5 0ZM17.0283 12.1L21.7895 12.1C21.6397 14.1942 20.9149 16.1204 19.6862 17.6941C19.0181 17.1388 17.9688 16.6894 16.4874 16.3247C16.818 14.7813 16.9512 13.2757 17.0276 12.1L17.0283 12.1ZM16.4934 6.73961C17.5269 6.49296 18.8608 6.05339 19.7482 5.30967C20.9398 6.90908 21.6427 8.83533 21.7902 10.9L17.0359 10.9C17.0119 9.49725 16.8299 8.10164 16.4934 6.73961ZM12.1 15.8382L12.1 12.1L15.8352 12.1C15.8216 13.0684 15.674 14.58 15.2973 16.1378C14.1185 15.9563 12.97 15.8496 12.1 15.8382ZM15.8261 10.9L12.1 10.9L12.1 7.22684C12.9988 7.21625 14.0731 7.11487 15.2988 6.92572C15.6635 8.39349 15.7535 9.78711 15.814 10.7185L15.8261 10.9ZM18.975 4.43431C18.3879 4.90112 17.4013 5.30362 16.2203 5.55405C15.6771 3.8472 14.9046 2.48461 13.9188 1.49424C15.8178 1.93003 17.5541 2.93855 18.975 4.43431ZM12.1 6.02615L12.1 1.56763C13.3347 2.32875 14.2948 3.75112 14.9576 5.8022C13.9006 5.9747 12.8512 6.02086 12.1 6.02615ZM14.9561 17.3249C14.2956 19.2958 13.3362 20.6758 12.1 21.4331L12.1 17.0374C12.9171 17.0495 13.9173 17.1501 14.9561 17.3249ZM13.9195 21.505C14.8872 20.5366 15.6052 19.2504 16.156 17.5103C17.3363 17.7607 18.3243 18.1632 18.9099 18.63C17.5481 20.0652 15.7974 21.0722 13.9203 21.505L13.9195 21.505ZM10.9 7.22684L10.9 10.9L7.1648 10.9C7.17842 9.92102 7.3252 8.43661 7.70122 6.98852C9.07138 7.18523 10.3038 7.22155 10.9 7.22684ZM7.17388 12.1L10.9 12.1L10.9 15.8375C9.8098 15.8458 8.73546 15.9457 7.70122 16.1333C7.3373 14.6156 7.24651 13.2182 7.18599 12.2846L7.17388 12.1ZM4.025 4.43431C5.44586 2.93855 7.1822 1.93003 9.08197 1.49424C8.08556 2.49671 7.31309 3.87747 6.78046 5.61155C5.53438 5.28849 4.58865 4.88372 4.025 4.43355L4.025 4.43431ZM6.84401 17.5103C7.37664 19.1853 8.14382 20.5517 9.08273 21.505C7.2049 21.0737 5.45266 20.066 4.08931 18.63C4.67566 18.1632 5.66299 17.7607 6.84401 17.5103ZM10.9 17.0374L10.9 21.4331C9.65168 20.6675 8.69082 19.267 8.04243 17.2621C9.10164 17.0881 10.1503 17.0427 10.9 17.0374ZM8.03941 5.79237C8.59549 3.90092 9.60174 2.41803 10.9 1.57595L10.9 6.02615C10.0375 6.01405 9.02296 5.90661 8.03941 5.79237ZM1.2703 10.9C1.3523 8.87924 2.04297 6.93037 3.25178 5.30891C4.14076 6.05414 5.47687 6.49447 6.51112 6.74112C6.21807 8.10888 6.05644 9.50151 6.02842 10.9L1.26954 10.9L1.2703 10.9ZM5.96411 12.1C5.97168 12.768 6.04355 14.465 6.50658 16.3262C5.03125 16.6894 3.98263 17.138 3.31609 17.6918C2.08211 16.0387 1.35655 14.1117 1.21053 12.1L5.96411 12.1Z" fill-rule="evenodd"  fill="#FFFFFF" >
</path>
</svg>
