<svg xmlns="http://www.w3.org/2000/svg" xmlns:xlink="http://www.w3.org/1999/xlink" width="23" height="26.559814453125" viewBox="0 0 23 26.559814453125" fill="none">
<path d="M18.8826 26.5558L4.11919 26.5558C1.8479 26.5558 2.39019e-15 24.6182 2.39019e-15 22.2375L1.67746 22.2375C1.67746 23.6943 2.77364 24.8784 4.12099 24.8784L18.8844 24.8784C20.23 24.8784 21.3261 23.6943 21.3261 22.2375L21.3261 12.5782C21.3261 11.1214 20.23 9.93736 18.8844 9.93736L17.2249 9.93736L17.2249 7.17808C17.2249 3.78549 15.02 1.67746 11.4713 1.67746C7.9603 1.67746 5.77871 3.78549 5.77871 7.17808L5.77871 9.93556L4.11919 9.93556C2.77184 9.93556 1.67566 11.1197 1.67566 12.5764L1.67566 18.2511L0 18.2511L0 12.5782C0 10.2047 1.83713 8.27067 4.10125 8.2599L4.10125 7.17808C4.10125 2.88487 7.06327 0 11.4695 0C15.9134 0 18.9006 2.88487 18.9006 7.17808L18.9006 8.2599C21.1629 8.26887 23 10.2029 23 12.5782L23 22.2375C23.0018 24.6182 21.1539 26.5558 18.8826 26.5558Z"   fill="#FFFFFF" >
</path>
<path d="M9.66406 13.5893L9.66406 17.0949L10.6777 17.0949L10.6777 20.4965L12.2816 20.4965L12.2816 17.0949L13.2971 17.0949L13.2971 13.5893L9.66406 13.5893ZM4.93848 8.2627L18.6057 8.2627L18.6057 9.92401L4.93848 9.92401L4.93848 8.2627Z" fill-rule="evenodd"  fill="#FFFFFF" >
</path>
</svg>
