<svg xmlns="http://www.w3.org/2000/svg" xmlns:xlink="http://www.w3.org/1999/xlink" width="23" height="28.2099609375" viewBox="0 0 23 28.2099609375" fill="none">
<path d="M11.7709 28.1832C11.6705 28.1999 11.5635 28.2099 11.4599 28.2099C11.3562 28.2099 11.2492 28.1999 11.1455 28.1832C10.6908 28.0996 0 25.9996 0 9.67083L0 4.3706C0 3.88238 0.203984 3.41422 0.561791 3.08316C0.889503 2.77552 1.32422 2.60497 1.77232 2.60497C1.81245 2.60497 1.84923 2.60497 1.88936 2.60832C1.91611 2.61166 2.20035 2.62838 2.6451 2.62838C3.38078 2.62838 4.84545 2.57822 6.20646 2.24382C8.28642 1.73553 10.4099 0.347775 10.4801 0.297616C10.7777 0.10032 11.1188 0 11.4632 0C11.8043 0 12.1487 0.10032 12.4464 0.297616C13.0382 0.692207 15.0647 1.81245 16.8236 2.24382C18.1847 2.57822 19.6226 2.62838 20.3583 2.62838C20.803 2.62838 21.0872 2.61166 21.1107 2.60832C21.1508 2.60497 21.1909 2.60497 21.231 2.60497C21.6791 2.60497 22.1105 2.77217 22.4382 3.07982C22.796 3.41422 23 4.76519 23 5.25342L23 9.67083C22.9967 25.9962 12.2257 28.0996 11.7709 28.1832ZM21.2277 4.3706C21.2277 4.3706 20.8933 4.39401 20.3516 4.39401C19.4253 4.39401 17.8937 4.32713 16.3956 3.95929C13.9512 3.35737 11.4599 1.76563 11.4599 1.76563C11.4599 1.76563 9.07226 3.35737 6.62446 3.95595C5.12969 4.32379 3.57139 4.39067 2.64176 4.39067C2.10003 4.39067 1.76897 4.36726 1.76897 4.36726L1.76897 9.66749C1.76897 24.7054 11.4599 26.441 11.4599 26.441C11.4599 26.441 21.2277 24.7088 21.2277 9.67083L21.2277 4.3706ZM11.4933 16.7534C9.54042 16.7534 7.95871 15.1717 7.95871 13.2222C7.95871 11.2726 9.54042 9.6909 11.4933 9.6909C13.4462 9.6909 15.0279 11.2726 15.0279 13.2222C15.0279 15.1717 13.4462 16.7534 11.4933 16.7534ZM11.4933 11.4565C10.5169 11.4565 9.72434 12.2491 9.72434 13.2222C9.72434 14.1986 10.5135 14.9878 11.4933 14.9878C12.4698 14.9878 13.2589 14.1986 13.2589 13.2222C13.2623 12.2457 12.4698 11.4565 11.4933 11.4565Z" fill-rule="evenodd"  fill="#FFFFFF" >
</path>
</svg>
