<svg xmlns="http://www.w3.org/2000/svg" xmlns:xlink="http://www.w3.org/1999/xlink" width="23" height="23" viewBox="0 0 23 23" fill="none">
<path d="M20.7 2.875L19.55 2.875L19.55 4.025L20.7 4.025C21.3348 4.025 21.85 4.54019 21.85 5.17499L21.85 20.7C21.85 21.3348 21.3348 21.85 20.7 21.85L2.3 21.85C1.6652 21.85 1.15 21.3348 1.15 20.7L1.15 5.17499C1.15 4.54019 1.6652 4.025 2.3 4.025L11.5 4.025L11.5 2.875L2.3 2.875C1.0304 2.875 0 3.9054 0 5.17499L0 20.7C0 21.9707 1.0304 23 2.3 23L20.7 23C21.9707 23 23 21.9707 23 20.7L23 5.17499C23 3.9054 21.9707 2.875 20.7 2.875ZM18.4 13.225L18.4 2.875C18.4 1.28685 17.1131 0 15.525 0C13.9368 0 12.65 1.28685 12.65 2.875L12.65 13.225L15.525 17.825L18.4 13.225ZM13.8 2.875C13.8 1.9228 14.5728 1.15 15.525 1.15C16.4772 1.15 17.25 1.9228 17.25 2.875L17.25 13.225L13.8 13.225L13.8 2.875ZM16.675 14.375L15.525 16.1L14.375 14.375L16.675 14.375ZM5.17499 9.77499L9.19999 9.77499C9.51739 9.77499 9.77499 9.51739 9.77499 9.19999C9.77499 8.88259 9.51739 8.62499 9.19999 8.62499L5.17499 8.62499C4.85759 8.62499 4.59999 8.88259 4.59999 9.19999C4.59999 9.51739 4.85759 9.77499 5.17499 9.77499ZM5.17499 13.8L10.35 13.8C10.6674 13.8 10.925 13.5424 10.925 13.225C10.925 12.9076 10.6674 12.65 10.35 12.65L5.17499 12.65C4.85759 12.65 4.59999 12.9076 4.59999 13.225C4.59999 13.5424 4.85759 13.8 5.17499 13.8ZM4.59999 17.25C4.59999 17.5674 4.85759 17.825 5.17499 17.825L12.075 17.825C12.3924 17.825 12.65 17.5674 12.65 17.25C12.65 16.9326 12.3924 16.675 12.075 16.675L5.17499 16.675C4.85759 16.675 4.59999 16.9326 4.59999 17.25Z" fill-rule="evenodd"  fill="#FFFFFF" >
</path>
</svg>
