<svg xmlns="http://www.w3.org/2000/svg" xmlns:xlink="http://www.w3.org/1999/xlink" width="23" height="24" viewBox="0 0 23 24" fill="none">
<path d="M2.75569 1.96323C2.6679 1.96323 2.59673 2.01704 2.59673 2.08341L2.59673 21.1108L5.64455 19.4649C6.09601 19.2212 6.70234 19.2212 7.1538 19.4649L11.5002 21.8119L15.8464 19.4649C16.2978 19.2212 16.9042 19.2212 17.3556 19.4649L20.4032 21.1108L20.4032 2.08341C20.4032 2.01704 20.3321 1.96323 20.2443 1.96323L2.75569 1.96323ZM0 2.08341C0 0.932816 1.23382 0 2.75569 0L20.2443 0C21.7661 0 23 0.932816 23 2.08341L23 23.0183C23 23.3861 22.7282 23.7229 22.2957 23.8912C21.8632 24.0594 21.3426 24.0308 20.9469 23.8171L16.6009 21.4701L12.2547 23.8171C11.8032 24.0608 11.1968 24.0608 10.7453 23.8171L6.39945 21.4701L2.05327 23.8171C1.65751 24.0308 1.13693 24.0594 0.704467 23.8912C0.272 23.7229 0.000178274 23.3861 0.000185469 23.0183L0 2.08341Z" fill-rule="evenodd"  fill="#FFFFFF" >
</path>
<path d="M5.83154 10.8976C5.83154 10.3555 6.41284 9.91597 7.12991 9.91597L15.874 9.91597C16.5906 9.91597 17.1724 10.3558 17.1724 10.8976C17.1724 11.4394 16.5906 11.8792 15.874 11.8792L7.12991 11.8792C6.41284 11.8792 5.83154 11.4397 5.83154 10.8976ZM5.83154 15.305C5.83154 14.7629 6.41284 14.3234 7.12991 14.3234L15.874 14.3234C16.3379 14.3234 16.7665 14.5105 16.9984 14.8142C17.2304 15.1179 17.2304 15.4921 16.9984 15.7959C16.7665 16.0996 16.3379 16.2867 15.874 16.2867L7.12991 16.2867C6.41284 16.2867 5.83154 15.8472 5.83154 15.305ZM5.83154 6.49041C5.83154 5.94827 6.41284 5.50879 7.12991 5.50879L15.874 5.50879C16.5906 5.50879 17.1724 5.94864 17.1724 6.49041C17.1724 7.03218 16.5906 7.47202 15.874 7.47202L7.12991 7.47202C6.41284 7.47202 5.83154 7.03254 5.83154 6.49041Z" fill-rule="evenodd"  fill="#FFFFFF" >
</path>
</svg>
